<svg width="174" height="39" viewBox="0 0 174 39" fill="none" xmlns="http://www.w3.org/2000/svg">
<path d="M16.0429 26.8063C13.8665 25.998 11.628 25.8736 9.57599 26.4333C8.14581 26.8064 6.77781 27.5525 5.53417 28.4853L4.66361 29.2314L4.41489 29.4802L4.97452 29.9776C5.0367 29.9776 5.03671 30.0398 5.09889 30.102C5.22325 30.2264 5.34763 30.2885 5.53417 30.4129L5.90725 30.6616L6.28034 30.3507C6.34252 30.2885 6.46689 30.1642 6.59125 30.102C7.71052 29.1693 8.95416 28.5474 10.26 28.2365C11.9389 27.8013 13.7422 27.8634 15.5454 28.5474C17.0378 29.1071 20.0847 29.7911 23.7534 28.2365L23.8778 28.1743L24.0643 27.9878C24.0643 27.9256 24.1265 27.9256 24.1887 27.8634C24.4996 27.4903 24.8105 27.1173 25.0593 26.682L26.3029 24.7543L24.3131 25.8736C21.3905 27.4903 18.7167 27.8013 16.0429 26.8063Z" fill="#55B02E"/>
<path d="M7.52397 20.0907C9.20288 19.6554 11.0062 19.7176 12.8094 20.4016C14.7992 21.1478 19.8982 22.2049 25.6189 17.0438L26.5516 16.1111L26.6138 16.0489L26.8625 15.8002L26.7381 15.4893C26.676 15.2405 26.5516 14.9296 26.4272 14.6187L26.1163 13.7482L25.4945 14.37C25.4323 14.4944 25.308 14.5565 25.1836 14.6809C22.4476 17.4791 18.2192 20.3395 13.3691 18.5984C11.1927 17.79 8.95415 17.6656 6.90215 18.2253C4.91233 18.7849 3.17124 19.842 1.55451 21.3344V21.2722L0.621784 22.2671C0.621784 22.3293 0.559614 22.3293 0.497432 22.3915L0.310875 22.578L0.373061 22.8267C0.435242 23.1376 0.559602 23.4485 0.621784 23.7594L0.994879 24.7544L1.6167 23.946C1.67888 23.8216 1.80324 23.7595 1.86542 23.6351C3.17124 22.4536 4.97452 20.7747 7.52397 20.0907Z" fill="#55B02E"/>
<path d="M1.49235 18.9714C2.92253 17.4791 4.53925 16.5463 6.28034 16.0489C7.95925 15.6136 9.76252 15.6758 11.5658 16.3598C17.1622 18.4118 22.0123 15.054 24.1265 13.2507L24.9349 12.4424L25.2458 12.1936L24.9971 11.8205C24.8105 11.634 24.6862 11.3853 24.4996 11.1365L24.1265 10.6391L23.6912 11.0743C23.6291 11.1365 23.5047 11.2609 23.4425 11.3231C20.8309 13.8103 16.7891 16.3598 12.1876 14.6187C10.0112 13.8104 7.7727 13.686 5.7207 14.2456C4.41489 14.6187 3.17125 15.2405 1.92761 16.0489L0.621788 17.106C0.497424 17.2304 0.435242 17.2925 0.310879 17.4169L0.186526 17.5413V17.7278C0.124345 18.1631 0.124337 18.5984 0.0621551 18.9714L-3.05176e-05 20.526L1.05707 19.4067C1.18143 19.2823 1.3058 19.0958 1.49235 18.9714Z" fill="#55B02E"/>
<path d="M17.8462 31.0347L17.7218 31.4078L17.8462 31.0347C17.6596 30.9725 17.5353 30.9103 17.3487 30.8482C15.1724 30.0398 12.9338 29.9155 10.8818 30.4751C10.4465 30.5995 10.0113 30.7238 9.576 30.9103L8.08362 31.5944L7.71054 31.7809L8.95418 32.2162C9.32727 32.3405 9.70035 32.4649 10.0734 32.5893L10.26 32.6515L10.4465 32.5893C10.6331 32.5271 10.8196 32.4027 11.0062 32.4027C11.1305 32.4027 11.2549 32.3405 11.3793 32.2784C12.8716 31.9053 14.4883 31.9053 16.2294 32.4649C16.416 32.5271 16.5404 32.5893 16.7269 32.6515L17.0378 32.7758L17.2244 32.7136C17.6596 32.5893 18.1571 32.4649 18.5302 32.2784L20.2713 31.6565L18.468 31.2213C18.2814 31.1591 18.0327 31.0969 17.8462 31.0347Z" fill="#55B02E"/>
<path d="M27.36 18.1631L26.4273 19.0958C26.3029 19.2202 26.1786 19.3445 26.0542 19.4689C23.5047 21.894 19.4007 24.5056 14.7993 22.7645C12.6229 21.9562 10.3844 21.8318 8.33237 22.3915C6.40473 22.9511 4.66363 23.946 3.10908 25.4384L2.30073 26.3089L2.052 26.6198L2.30073 26.9929C2.48727 27.2416 2.61164 27.4282 2.73601 27.6769L3.10908 28.2365L3.54436 27.6769C3.60654 27.6147 3.7309 27.4904 3.79309 27.4282C5.28545 25.8114 6.90218 24.8165 8.76763 24.3191C10.4465 23.8838 12.2498 23.946 14.0531 24.63C15.6076 25.1896 17.2244 25.3762 18.8411 25.1896C21.7015 24.8787 24.5618 23.262 26.676 21.4587C26.8004 21.3344 26.9247 21.2722 27.0491 21.1478L27.2356 20.9613V20.7747C27.2356 20.4016 27.2978 19.9664 27.2978 19.5933L27.36 18.1631Z" fill="#55B02E"/>
<path d="M3.73088 12.4424L3.54434 12.0693L3.73088 12.4424C4.10397 12.2558 4.53926 12.1315 4.91235 12.0071C6.59126 11.5718 8.39453 11.634 10.1978 12.318C11.3793 12.7533 12.5607 12.9398 13.8665 12.9398C16.4782 12.9398 19.0898 12.0071 21.5149 10.2038L22.4476 9.45764L22.7585 9.20892L22.1989 8.77364C22.0123 8.58709 21.7636 8.40055 21.5149 8.27619L21.1418 8.02747L20.8309 8.27619C20.7065 8.33837 20.6443 8.46273 20.52 8.52491C17.2243 11.0122 13.9287 11.6962 10.8196 10.5147C8.58108 9.70637 6.34252 9.51983 4.10397 10.2038C3.91743 10.266 3.73088 10.3282 3.48215 10.3904L3.3578 10.4526L3.17125 10.6391C3.17125 10.7013 3.10908 10.7013 3.04689 10.7635C2.79817 11.1366 2.48725 11.4475 2.23852 11.8206L1.05707 13.6238L2.98471 12.6289C3.29562 12.6289 3.54433 12.5046 3.73088 12.4424Z" fill="#55B02E"/>
<path d="M8.82981 8.21399L9.01634 8.27617C9.82471 8.58708 11.0684 8.89799 12.6229 8.89799C14.2396 8.89799 15.7942 8.5249 17.3487 7.90308L19.2763 6.97035L17.9705 6.53509C17.5975 6.41073 17.2243 6.28636 16.7891 6.22418H16.6025L16.416 6.28635C16.2295 6.34853 16.0429 6.47291 15.8563 6.53509C13.9909 7.21909 12.1254 7.34345 10.3222 6.846C10.1356 6.78382 9.94908 6.72163 9.76253 6.65944L9.576 6.59726L9.38944 6.65944C9.01635 6.78381 8.64327 6.90818 8.27017 7.09472L6.83998 7.71654L8.33236 8.1518C8.45672 8.08962 8.64326 8.15181 8.82981 8.21399Z" fill="#55B02E"/>
<path d="M39.8319 30V10.26H42.9959L50.248 26.584H49.3799L56.6319 10.26H59.7679V30H56.492V15.356H57.5L50.8639 30H48.708L42.0719 15.356H43.1079V30H39.8319ZM70.2712 30.28C68.8152 30.28 67.5552 29.9813 66.4912 29.384C65.4272 28.7867 64.5966 27.9373 63.9992 26.836C63.4206 25.7347 63.1312 24.428 63.1312 22.916C63.1312 21.404 63.4206 20.1067 63.9992 19.024C64.5966 17.9227 65.4272 17.0733 66.4912 16.476C67.5552 15.8787 68.8152 15.58 70.2712 15.58C71.7272 15.58 72.9872 15.8787 74.0512 16.476C75.1339 17.0733 75.9646 17.9227 76.5432 19.024C77.1406 20.1067 77.4392 21.404 77.4392 22.916C77.4392 24.428 77.1406 25.7347 76.5432 26.836C75.9646 27.9373 75.1339 28.7867 74.0512 29.384C72.9872 29.9813 71.7272 30.28 70.2712 30.28ZM70.2712 27.592C71.3726 27.592 72.2499 27.2093 72.9032 26.444C73.5566 25.66 73.8832 24.484 73.8832 22.916C73.8832 21.348 73.5566 20.1813 72.9032 19.416C72.2499 18.6507 71.3726 18.268 70.2712 18.268C69.1699 18.268 68.2926 18.6507 67.6392 19.416C66.9859 20.1813 66.6592 21.348 66.6592 22.916C66.6592 24.484 66.9859 25.66 67.6392 26.444C68.2926 27.2093 69.1699 27.592 70.2712 27.592ZM80.4575 30V19.388C80.4575 18.8093 80.4389 18.2213 80.4015 17.624C80.3642 17.0267 80.3082 16.4387 80.2335 15.86H83.6215L83.9015 18.66H83.5655C84.0135 17.6707 84.6762 16.9147 85.5535 16.392C86.4309 15.8507 87.4482 15.58 88.6055 15.58C90.2669 15.58 91.5175 16.0467 92.3575 16.98C93.1975 17.9133 93.6175 19.3693 93.6175 21.348V30H90.1175V21.516C90.1175 20.3773 89.8935 19.5653 89.4455 19.08C89.0162 18.576 88.3629 18.324 87.4855 18.324C86.4029 18.324 85.5442 18.66 84.9095 19.332C84.2749 20.004 83.9575 20.9 83.9575 22.02V30H80.4575ZM104.161 30.28C101.79 30.28 99.9326 29.6267 98.5886 28.32C97.2446 27.0133 96.5726 25.2213 96.5726 22.944C96.5726 21.4693 96.862 20.1813 97.4406 19.08C98.0193 17.9787 98.822 17.12 99.8486 16.504C100.894 15.888 102.107 15.58 103.489 15.58C104.851 15.58 105.99 15.8693 106.905 16.448C107.819 17.0267 108.51 17.8387 108.977 18.884C109.462 19.9293 109.705 21.152 109.705 22.552V23.476H99.4006V21.628H107.213L106.737 22.02C106.737 20.7133 106.457 19.7147 105.897 19.024C105.355 18.3333 104.562 17.988 103.517 17.988C102.359 17.988 101.463 18.3987 100.829 19.22C100.213 20.0413 99.9046 21.1893 99.9046 22.664V23.028C99.9046 24.5587 100.278 25.7067 101.025 26.472C101.79 27.2187 102.863 27.592 104.245 27.592C105.047 27.592 105.794 27.4893 106.485 27.284C107.194 27.06 107.866 26.7053 108.501 26.22L109.537 28.572C108.865 29.1133 108.062 29.5333 107.129 29.832C106.195 30.1307 105.206 30.28 104.161 30.28ZM118.662 30.28C116.982 30.28 115.712 29.8413 114.854 28.964C113.995 28.0867 113.566 26.7707 113.566 25.016V18.492H110.85V15.86H113.566V12.248L117.066 11.352V15.86H120.846V18.492H117.066V24.792C117.066 25.7627 117.252 26.444 117.626 26.836C117.999 27.228 118.512 27.424 119.166 27.424C119.52 27.424 119.819 27.396 120.062 27.34C120.323 27.284 120.575 27.2093 120.818 27.116V29.888C120.5 30.0187 120.146 30.112 119.754 30.168C119.38 30.2427 119.016 30.28 118.662 30.28ZM123.223 30V15.86H126.723V30H123.223ZM123.027 13.2V9.784H126.919V13.2H123.027ZM128.34 30L134.92 21.908V23.504L128.704 15.86H132.848L136.908 21.096H135.648L139.708 15.86H143.824L137.664 23.504V21.908L144.216 30H140.044L135.648 24.372H136.908L132.484 30H128.34Z" fill="white"/>
</svg>
